<mxfile host="app.diagrams.net" modified="2023-08-03T06:44:04.489Z" agent="Mozilla/5.0 (Macintosh; Intel Mac OS X 10_15_7) AppleWebKit/537.36 (KHTML, like Gecko) Chrome/115.0.0.0 Safari/537.36" version="21.6.6" etag="NJG76jJZzVgBJ5kz5si6" type="github">
  <diagram name="第 1 页" id="Gfl4ryCIQ-7sh_-jAYvB">
    <mxGraphModel>
      <root>
        <mxCell id="0" />
        <mxCell id="1" parent="0" />
      </root>
    </mxGraphModel>
  </diagram>
</mxfile>
